<?xml version="1.0" encoding="UTF-8"?>
<svg xmlns="http://www.w3.org/2000/svg" xmlns:xlink="http://www.w3.org/1999/xlink" width="375pt" height="374.999991pt" viewBox="0 0 375 374.999991" version="1.2">
<defs>
<clipPath id="clip1">
  <path d="M 51.230469 48 L 293 48 L 293 362.859375 L 51.230469 362.859375 Z M 51.230469 48 "/>
</clipPath>
<clipPath id="clip2">
  <path d="M 250 48 L 323 48 L 323 362.859375 L 250 362.859375 Z M 250 48 "/>
</clipPath>
<clipPath id="clip3">
  <path d="M 63 11.953125 L 293 11.953125 L 293 61 L 63 61 Z M 63 11.953125 "/>
</clipPath>
<clipPath id="clip4">
  <path d="M 262 11.953125 L 311 11.953125 L 311 61 L 262 61 Z M 262 11.953125 "/>
</clipPath>
</defs>
<g id="surface1">
<g clip-path="url(#clip1)" clip-rule="nonzero">
<path style=" stroke:none;fill-rule:nonzero;fill:rgb(84.709167%,62.748718%,38.819885%);fill-opacity:1;" d="M 286.71875 48.191406 L 87.710938 48.191406 C 87.09375 48.191406 86.488281 48.285156 85.898438 48.472656 C 85.304688 48.660156 84.757812 48.929688 84.25 49.285156 C 83.742188 49.644531 83.300781 50.066406 82.925781 50.5625 C 82.546875 51.054688 82.253906 51.59375 82.042969 52.175781 L 51.890625 136.730469 C 51.652344 137.394531 51.53125 138.078125 51.53125 138.785156 L 51.53125 356.214844 C 51.53125 356.609375 51.570312 357.003906 51.644531 357.394531 C 51.722656 357.78125 51.835938 358.160156 51.988281 358.527344 C 52.140625 358.890625 52.328125 359.242188 52.546875 359.570312 C 52.765625 359.898438 53.015625 360.203125 53.296875 360.484375 C 53.578125 360.765625 53.882812 361.015625 54.210938 361.238281 C 54.539062 361.457031 54.886719 361.644531 55.253906 361.792969 C 55.617188 361.945312 55.996094 362.0625 56.382812 362.136719 C 56.773438 362.214844 57.164062 362.253906 57.5625 362.253906 L 256.566406 362.253906 C 256.960938 362.253906 257.355469 362.214844 257.742188 362.136719 C 258.128906 362.0625 258.507812 361.945312 258.875 361.792969 C 259.238281 361.644531 259.585938 361.457031 259.914062 361.238281 C 260.246094 361.015625 260.550781 360.765625 260.828125 360.484375 C 261.109375 360.203125 261.359375 359.898438 261.578125 359.570312 C 261.800781 359.238281 261.984375 358.890625 262.136719 358.527344 C 262.289062 358.160156 262.402344 357.78125 262.480469 357.394531 C 262.558594 357.003906 262.597656 356.609375 262.597656 356.214844 L 262.597656 139.8125 L 292.386719 56.285156 C 292.550781 55.828125 292.660156 55.359375 292.710938 54.875 C 292.761719 54.394531 292.757812 53.914062 292.691406 53.433594 C 292.628906 52.953125 292.507812 52.484375 292.332031 52.035156 C 292.15625 51.582031 291.929688 51.160156 291.652344 50.761719 C 291.375 50.363281 291.054688 50.007812 290.6875 49.6875 C 290.324219 49.367188 289.929688 49.09375 289.5 48.871094 C 289.070312 48.648438 288.621094 48.480469 288.148438 48.363281 C 287.679688 48.25 287.203125 48.191406 286.71875 48.191406 Z M 286.71875 48.191406 "/>
</g>
<g clip-path="url(#clip2)" clip-rule="nonzero">
<path style=" stroke:none;fill-rule:nonzero;fill:rgb(60.778809%,43.139648%,27.839661%);fill-opacity:1;" d="M 322.539062 136.730469 L 292.386719 52.175781 C 292.175781 51.59375 291.882812 51.054688 291.503906 50.5625 C 291.128906 50.070312 290.6875 49.648438 290.179688 49.292969 C 289.671875 48.933594 289.125 48.664062 288.53125 48.476562 C 287.941406 48.289062 287.335938 48.195312 286.71875 48.195312 C 286.097656 48.195312 285.492188 48.289062 284.902344 48.476562 C 284.3125 48.664062 283.765625 48.933594 283.257812 49.292969 C 282.75 49.648438 282.308594 50.070312 281.929688 50.5625 C 281.554688 51.054688 281.261719 51.59375 281.050781 52.175781 L 250.898438 136.730469 C 250.65625 137.394531 250.535156 138.078125 250.535156 138.785156 L 250.535156 356.214844 C 250.535156 356.460938 250.550781 356.707031 250.578125 356.949219 C 250.609375 357.191406 250.652344 357.433594 250.710938 357.671875 C 250.769531 357.910156 250.84375 358.144531 250.933594 358.375 C 251.019531 358.605469 251.121094 358.828125 251.234375 359.046875 C 251.351562 359.261719 251.476562 359.472656 251.617188 359.671875 C 251.757812 359.875 251.910156 360.066406 252.074219 360.25 C 252.238281 360.433594 252.410156 360.605469 252.597656 360.769531 C 252.78125 360.929688 252.976562 361.078125 253.179688 361.21875 C 253.382812 361.355469 253.59375 361.480469 253.808594 361.59375 C 254.027344 361.707031 254.253906 361.804688 254.484375 361.890625 C 254.714844 361.972656 254.949219 362.042969 255.1875 362.101562 C 255.425781 362.15625 255.667969 362.199219 255.910156 362.222656 C 256.15625 362.25 256.398438 362.261719 256.644531 362.257812 C 256.890625 362.257812 257.136719 362.238281 257.378906 362.203125 C 257.621094 362.171875 257.863281 362.125 258.097656 362.0625 C 258.335938 362 258.570312 361.921875 258.796875 361.832031 L 286.71875 350.65625 L 314.640625 361.832031 C 314.867188 361.921875 315.097656 362 315.335938 362.0625 C 315.574219 362.125 315.8125 362.171875 316.058594 362.203125 C 316.300781 362.238281 316.546875 362.257812 316.789062 362.257812 C 317.035156 362.261719 317.28125 362.25 317.523438 362.222656 C 317.769531 362.199219 318.007812 362.15625 318.25 362.101562 C 318.488281 362.042969 318.722656 361.972656 318.953125 361.890625 C 319.183594 361.804688 319.40625 361.707031 319.625 361.59375 C 319.84375 361.480469 320.054688 361.355469 320.257812 361.21875 C 320.460938 361.078125 320.652344 360.929688 320.839844 360.769531 C 321.023438 360.605469 321.199219 360.433594 321.363281 360.25 C 321.523438 360.066406 321.675781 359.875 321.816406 359.671875 C 321.957031 359.472656 322.085938 359.261719 322.199219 359.046875 C 322.316406 358.828125 322.417969 358.605469 322.503906 358.375 C 322.589844 358.144531 322.664062 357.910156 322.722656 357.671875 C 322.78125 357.433594 322.828125 357.191406 322.855469 356.949219 C 322.886719 356.707031 322.902344 356.460938 322.902344 356.214844 L 322.902344 138.785156 C 322.898438 138.078125 322.777344 137.394531 322.539062 136.730469 Z M 322.539062 136.730469 "/>
</g>
<g clip-path="url(#clip3)" clip-rule="nonzero">
<path style=" stroke:none;fill-rule:nonzero;fill:rgb(60.778809%,43.139648%,27.839661%);fill-opacity:1;" d="M 286.71875 48.191406 C 285.925781 48.191406 285.140625 48.113281 284.363281 47.957031 C 283.589844 47.804688 282.832031 47.574219 282.101562 47.269531 C 281.371094 46.96875 280.675781 46.59375 280.015625 46.15625 C 279.359375 45.714844 278.75 45.214844 278.191406 44.652344 C 277.628906 44.089844 277.128906 43.480469 276.691406 42.820312 C 276.25 42.164062 275.878906 41.464844 275.574219 40.734375 C 275.273438 40 275.042969 39.246094 274.886719 38.46875 C 274.734375 37.6875 274.65625 36.902344 274.65625 36.109375 C 274.65625 35.316406 274.734375 34.53125 274.886719 33.753906 C 275.042969 32.976562 275.273438 32.222656 275.574219 31.488281 C 275.878906 30.753906 276.25 30.058594 276.691406 29.398438 C 277.128906 28.742188 277.628906 28.128906 278.191406 27.570312 C 278.75 27.007812 279.359375 26.507812 280.015625 26.066406 C 280.675781 25.625 281.371094 25.253906 282.101562 24.949219 C 282.832031 24.648438 283.589844 24.417969 284.363281 24.261719 C 285.140625 24.109375 285.925781 24.03125 286.71875 24.03125 C 287.113281 24.03125 287.507812 23.992188 287.894531 23.914062 C 288.28125 23.839844 288.660156 23.722656 289.027344 23.570312 C 289.390625 23.417969 289.738281 23.234375 290.066406 23.011719 C 290.398438 22.792969 290.703125 22.542969 290.980469 22.261719 C 291.261719 21.980469 291.511719 21.675781 291.730469 21.347656 C 291.953125 21.015625 292.136719 20.667969 292.289062 20.304688 C 292.441406 19.9375 292.554688 19.558594 292.632812 19.171875 C 292.710938 18.78125 292.75 18.386719 292.75 17.992188 C 292.75 17.59375 292.710938 17.203125 292.632812 16.8125 C 292.554688 16.425781 292.441406 16.046875 292.289062 15.679688 C 292.136719 15.3125 291.953125 14.964844 291.730469 14.636719 C 291.511719 14.304688 291.261719 14 290.980469 13.722656 C 290.703125 13.441406 290.398438 13.191406 290.066406 12.96875 C 289.738281 12.75 289.390625 12.5625 289.027344 12.410156 C 288.660156 12.261719 288.28125 12.144531 287.894531 12.066406 C 287.507812 11.992188 287.113281 11.953125 286.71875 11.953125 L 87.710938 11.953125 C 86.921875 11.953125 86.132812 11.992188 85.347656 12.066406 C 84.5625 12.144531 83.78125 12.261719 83.007812 12.417969 C 82.230469 12.570312 81.464844 12.761719 80.710938 12.992188 C 79.953125 13.222656 79.210938 13.488281 78.480469 13.789062 C 77.75 14.09375 77.039062 14.429688 76.34375 14.804688 C 75.644531 15.175781 74.96875 15.582031 74.3125 16.023438 C 73.65625 16.464844 73.019531 16.933594 72.410156 17.4375 C 71.800781 17.9375 71.214844 18.46875 70.65625 19.027344 C 70.097656 19.585938 69.566406 20.171875 69.066406 20.785156 C 68.566406 21.394531 68.09375 22.03125 67.65625 22.6875 C 67.21875 23.347656 66.8125 24.023438 66.4375 24.722656 C 66.066406 25.421875 65.730469 26.132812 65.425781 26.867188 C 65.125 27.597656 64.859375 28.339844 64.628906 29.097656 C 64.398438 29.855469 64.207031 30.621094 64.054688 31.398438 C 63.898438 32.171875 63.785156 32.957031 63.707031 33.742188 C 63.628906 34.53125 63.589844 35.320312 63.589844 36.109375 C 63.589844 36.902344 63.628906 37.691406 63.707031 38.480469 C 63.785156 39.265625 63.898438 40.046875 64.054688 40.824219 C 64.207031 41.601562 64.398438 42.367188 64.628906 43.125 C 64.859375 43.878906 65.125 44.625 65.425781 45.355469 C 65.730469 46.085938 66.066406 46.800781 66.4375 47.5 C 66.8125 48.195312 67.21875 48.875 67.65625 49.53125 C 68.09375 50.191406 68.566406 50.824219 69.066406 51.4375 C 69.566406 52.046875 70.097656 52.632812 70.65625 53.195312 C 71.214844 53.753906 71.800781 54.285156 72.410156 54.785156 C 73.019531 55.289062 73.65625 55.757812 74.3125 56.199219 C 74.96875 56.636719 75.644531 57.042969 76.34375 57.417969 C 77.039062 57.789062 77.75 58.128906 78.480469 58.429688 C 79.210938 58.734375 79.953125 59 80.710938 59.230469 C 81.464844 59.457031 82.230469 59.652344 83.007812 59.804688 C 83.78125 59.960938 84.5625 60.074219 85.347656 60.152344 C 86.132812 60.230469 86.921875 60.269531 87.710938 60.269531 L 286.71875 60.269531 C 287.113281 60.269531 287.507812 60.230469 287.894531 60.152344 C 288.28125 60.074219 288.660156 59.960938 289.027344 59.808594 C 289.390625 59.65625 289.738281 59.472656 290.066406 59.25 C 290.398438 59.03125 290.703125 58.78125 290.980469 58.5 C 291.261719 58.21875 291.511719 57.914062 291.730469 57.585938 C 291.953125 57.253906 292.136719 56.90625 292.289062 56.542969 C 292.441406 56.175781 292.554688 55.796875 292.632812 55.40625 C 292.710938 55.019531 292.75 54.625 292.75 54.230469 C 292.75 53.832031 292.710938 53.441406 292.632812 53.050781 C 292.554688 52.664062 292.441406 52.285156 292.289062 51.917969 C 292.136719 51.550781 291.953125 51.203125 291.730469 50.875 C 291.511719 50.542969 291.261719 50.238281 290.980469 49.960938 C 290.703125 49.679688 290.398438 49.429688 290.066406 49.207031 C 289.738281 48.988281 289.390625 48.800781 289.027344 48.648438 C 288.660156 48.5 288.28125 48.382812 287.894531 48.304688 C 287.507812 48.230469 287.113281 48.191406 286.71875 48.191406 Z M 286.71875 48.191406 "/>
</g>
<g clip-path="url(#clip4)" clip-rule="nonzero">
<path style=" stroke:none;fill-rule:nonzero;fill:rgb(40.779114%,26.269531%,16.468811%);fill-opacity:1;" d="M 310.839844 36.109375 C 310.839844 36.902344 310.800781 37.691406 310.722656 38.480469 C 310.644531 39.265625 310.53125 40.046875 310.375 40.824219 C 310.222656 41.601562 310.03125 42.367188 309.800781 43.125 C 309.570312 43.878906 309.304688 44.625 309.003906 45.355469 C 308.699219 46.085938 308.363281 46.800781 307.992188 47.5 C 307.617188 48.195312 307.214844 48.875 306.773438 49.53125 C 306.335938 50.191406 305.867188 50.824219 305.363281 51.4375 C 304.863281 52.046875 304.332031 52.632812 303.773438 53.195312 C 303.214844 53.753906 302.632812 54.285156 302.019531 54.785156 C 301.410156 55.289062 300.777344 55.757812 300.121094 56.199219 C 299.460938 56.636719 298.785156 57.042969 298.089844 57.417969 C 297.390625 57.789062 296.679688 58.128906 295.949219 58.429688 C 295.21875 58.734375 294.476562 59 293.71875 59.230469 C 292.964844 59.457031 292.199219 59.652344 291.421875 59.804688 C 290.648438 59.960938 289.867188 60.074219 289.082031 60.152344 C 288.296875 60.230469 287.507812 60.269531 286.71875 60.269531 C 285.929688 60.269531 285.140625 60.230469 284.351562 60.152344 C 283.566406 60.074219 282.785156 59.960938 282.011719 59.804688 C 281.238281 59.652344 280.472656 59.457031 279.714844 59.230469 C 278.960938 59 278.214844 58.734375 277.488281 58.429688 C 276.757812 58.128906 276.042969 57.789062 275.347656 57.417969 C 274.648438 57.042969 273.972656 56.636719 273.316406 56.199219 C 272.660156 55.757812 272.027344 55.289062 271.414062 54.785156 C 270.804688 54.285156 270.21875 53.753906 269.660156 53.195312 C 269.101562 52.632812 268.574219 52.046875 268.070312 51.4375 C 267.570312 50.824219 267.101562 50.191406 266.660156 49.53125 C 266.222656 48.875 265.816406 48.195312 265.445312 47.5 C 265.070312 46.800781 264.734375 46.085938 264.433594 45.355469 C 264.128906 44.625 263.863281 43.878906 263.632812 43.125 C 263.40625 42.367188 263.214844 41.601562 263.058594 40.824219 C 262.90625 40.046875 262.789062 39.265625 262.710938 38.480469 C 262.632812 37.691406 262.597656 36.902344 262.597656 36.109375 C 262.597656 35.320312 262.632812 34.53125 262.710938 33.742188 C 262.789062 32.957031 262.90625 32.171875 263.058594 31.398438 C 263.214844 30.621094 263.40625 29.855469 263.632812 29.097656 C 263.863281 28.339844 264.128906 27.597656 264.433594 26.867188 C 264.734375 26.132812 265.070312 25.421875 265.445312 24.722656 C 265.816406 24.023438 266.222656 23.347656 266.660156 22.6875 C 267.101562 22.03125 267.570312 21.394531 268.070312 20.785156 C 268.574219 20.171875 269.101562 19.585938 269.660156 19.027344 C 270.21875 18.46875 270.804688 17.9375 271.414062 17.4375 C 272.027344 16.933594 272.660156 16.464844 273.316406 16.023438 C 273.972656 15.582031 274.648438 15.175781 275.347656 14.804688 C 276.042969 14.429688 276.757812 14.09375 277.488281 13.789062 C 278.214844 13.488281 278.960938 13.222656 279.714844 12.992188 C 280.472656 12.761719 281.238281 12.570312 282.011719 12.417969 C 282.785156 12.261719 283.566406 12.144531 284.351562 12.066406 C 285.140625 11.992188 285.929688 11.953125 286.71875 11.953125 C 287.507812 11.953125 288.296875 11.992188 289.082031 12.066406 C 289.867188 12.144531 290.648438 12.261719 291.421875 12.417969 C 292.199219 12.570312 292.964844 12.761719 293.71875 12.992188 C 294.476562 13.222656 295.21875 13.488281 295.949219 13.789062 C 296.679688 14.09375 297.390625 14.429688 298.089844 14.804688 C 298.785156 15.175781 299.460938 15.582031 300.121094 16.023438 C 300.777344 16.464844 301.410156 16.933594 302.019531 17.4375 C 302.632812 17.9375 303.214844 18.46875 303.773438 19.027344 C 304.332031 19.585938 304.863281 20.171875 305.363281 20.785156 C 305.867188 21.394531 306.335938 22.03125 306.773438 22.6875 C 307.214844 23.347656 307.617188 24.023438 307.992188 24.722656 C 308.363281 25.421875 308.699219 26.132812 309.003906 26.867188 C 309.304688 27.597656 309.570312 28.339844 309.800781 29.097656 C 310.03125 29.855469 310.222656 30.621094 310.375 31.398438 C 310.53125 32.171875 310.644531 32.957031 310.722656 33.742188 C 310.800781 34.53125 310.839844 35.320312 310.839844 36.109375 Z M 310.839844 36.109375 "/>
</g>
<path style=" stroke:none;fill-rule:nonzero;fill:rgb(54.119873%,54.119873%,54.119873%);fill-opacity:1;" d="M 168.097656 185.472656 C 167.53125 184.78125 166.894531 184.160156 166.191406 183.609375 C 165.484375 183.0625 164.730469 182.597656 163.921875 182.214844 C 163.113281 181.832031 162.273438 181.546875 161.398438 181.351562 C 160.527344 181.15625 159.644531 181.0625 158.75 181.0625 L 149.34375 181.0625 C 148.449219 181.0625 147.566406 181.15625 146.695312 181.351562 C 145.824219 181.546875 144.984375 181.832031 144.175781 182.214844 C 143.367188 182.597656 142.609375 183.0625 141.90625 183.609375 C 141.199219 184.160156 140.5625 184.78125 139.996094 185.472656 C 139.433594 186.164062 138.953125 186.910156 138.554688 187.707031 C 138.15625 188.507812 137.851562 189.339844 137.636719 190.207031 C 137.421875 191.074219 137.308594 191.953125 137.289062 192.847656 C 137.269531 193.738281 137.347656 194.625 137.523438 195.5 L 140.902344 212.46875 C 141.042969 213.164062 141.296875 213.808594 141.664062 214.414062 C 142.03125 215.015625 142.492188 215.539062 143.042969 215.980469 C 143.59375 216.421875 144.203125 216.753906 144.871094 216.980469 C 145.539062 217.210938 146.226562 217.316406 146.933594 217.300781 L 161.527344 216.757812 C 162.203125 216.730469 162.859375 216.589844 163.492188 216.339844 C 164.121094 216.089844 164.695312 215.742188 165.210938 215.300781 C 165.722656 214.855469 166.152344 214.339844 166.492188 213.75 C 166.832031 213.160156 167.066406 212.535156 167.195312 211.867188 L 170.449219 195.5 C 170.636719 194.628906 170.722656 193.746094 170.714844 192.855469 C 170.703125 191.964844 170.597656 191.089844 170.394531 190.222656 C 170.191406 189.355469 169.894531 188.519531 169.507812 187.71875 C 169.121094 186.917969 168.652344 186.167969 168.097656 185.472656 Z M 168.097656 185.472656 "/>
<path style=" stroke:none;fill-rule:nonzero;fill:rgb(73.728943%,73.728943%,73.728943%);fill-opacity:1;" d="M 154.046875 205.222656 C 152.960938 205.222656 151.878906 205.25 150.792969 205.300781 C 149.707031 205.355469 148.625 205.4375 147.546875 205.542969 C 146.464844 205.648438 145.386719 205.78125 144.316406 205.941406 C 143.242188 206.101562 142.171875 206.285156 141.105469 206.5 C 140.042969 206.710938 138.984375 206.949219 137.929688 207.214844 C 136.875 207.476562 135.832031 207.765625 134.792969 208.082031 C 133.753906 208.398438 132.722656 208.738281 131.699219 209.105469 C 130.679688 209.472656 129.664062 209.863281 128.664062 210.28125 C 127.660156 210.695312 126.667969 211.136719 125.6875 211.601562 C 124.703125 212.066406 123.734375 212.554688 122.777344 213.066406 C 121.820312 213.578125 120.875 214.117188 119.945312 214.675781 C 119.011719 215.234375 118.097656 215.816406 117.195312 216.417969 C 116.292969 217.023438 115.402344 217.648438 114.53125 218.296875 C 113.660156 218.945312 112.804688 219.613281 111.964844 220.300781 C 111.125 220.992188 110.304688 221.703125 109.5 222.433594 C 108.695312 223.164062 107.910156 223.914062 107.140625 224.679688 C 106.375 225.449219 105.625 226.238281 104.898438 227.042969 C 104.167969 227.847656 103.457031 228.671875 102.769531 229.511719 C 102.082031 230.351562 101.414062 231.210938 100.765625 232.082031 C 100.121094 232.957031 99.496094 233.84375 98.890625 234.75 C 98.289062 235.652344 97.707031 236.570312 97.152344 237.503906 C 96.59375 238.4375 96.058594 239.382812 95.546875 240.339844 C 95.035156 241.300781 94.546875 242.269531 94.082031 243.253906 C 93.617188 244.238281 93.175781 245.230469 92.761719 246.234375 C 92.347656 247.238281 91.957031 248.253906 91.589844 249.277344 C 91.226562 250.300781 90.882812 251.332031 90.570312 252.375 C 90.253906 253.414062 89.964844 254.460938 89.699219 255.515625 C 89.4375 256.570312 89.199219 257.632812 88.988281 258.699219 C 88.777344 259.765625 88.589844 260.835938 88.429688 261.910156 C 88.273438 262.984375 88.136719 264.066406 88.03125 265.148438 C 87.925781 266.230469 87.847656 267.3125 87.792969 268.398438 C 87.738281 269.484375 87.710938 270.570312 87.710938 271.660156 L 87.710938 283.738281 C 87.710938 284.136719 87.75 284.527344 87.828125 284.917969 C 87.90625 285.304688 88.019531 285.683594 88.171875 286.050781 C 88.324219 286.414062 88.507812 286.765625 88.730469 287.09375 C 88.949219 287.421875 89.199219 287.726562 89.480469 288.007812 C 89.757812 288.289062 90.0625 288.539062 90.394531 288.761719 C 90.722656 288.980469 91.070312 289.167969 91.433594 289.316406 C 91.800781 289.46875 92.179688 289.585938 92.566406 289.660156 C 92.957031 289.738281 93.347656 289.777344 93.742188 289.777344 L 214.351562 289.777344 C 214.75 289.777344 215.140625 289.738281 215.527344 289.660156 C 215.917969 289.585938 216.292969 289.46875 216.660156 289.316406 C 217.027344 289.167969 217.375 288.980469 217.703125 288.761719 C 218.03125 288.539062 218.335938 288.289062 218.617188 288.007812 C 218.898438 287.726562 219.148438 287.421875 219.367188 287.09375 C 219.585938 286.765625 219.773438 286.414062 219.921875 286.050781 C 220.074219 285.683594 220.191406 285.304688 220.265625 284.917969 C 220.34375 284.527344 220.382812 284.136719 220.382812 283.738281 L 220.382812 271.660156 C 220.382812 270.570312 220.355469 269.484375 220.304688 268.398438 C 220.25 267.3125 220.167969 266.230469 220.0625 265.148438 C 219.957031 264.066406 219.824219 262.984375 219.664062 261.910156 C 219.503906 260.835938 219.320312 259.765625 219.109375 258.699219 C 218.894531 257.632812 218.660156 256.570312 218.394531 255.515625 C 218.132812 254.460938 217.839844 253.414062 217.527344 252.375 C 217.210938 251.332031 216.871094 250.300781 216.503906 249.277344 C 216.140625 248.253906 215.75 247.238281 215.332031 246.234375 C 214.917969 245.230469 214.476562 244.238281 214.015625 243.253906 C 213.550781 242.269531 213.0625 241.300781 212.550781 240.339844 C 212.039062 239.382812 211.503906 238.4375 210.945312 237.503906 C 210.386719 236.570312 209.804688 235.652344 209.203125 234.75 C 208.601562 233.84375 207.976562 232.957031 207.328125 232.082031 C 206.683594 231.210938 206.015625 230.351562 205.324219 229.511719 C 204.636719 228.671875 203.929688 227.847656 203.199219 227.042969 C 202.46875 226.238281 201.722656 225.449219 200.953125 224.679688 C 200.1875 223.914062 199.398438 223.164062 198.59375 222.433594 C 197.792969 221.703125 196.96875 220.992188 196.128906 220.300781 C 195.292969 219.613281 194.433594 218.945312 193.5625 218.296875 C 192.691406 217.648438 191.804688 217.023438 190.902344 216.417969 C 190 215.816406 189.082031 215.234375 188.152344 214.675781 C 187.21875 214.117188 186.273438 213.578125 185.316406 213.066406 C 184.359375 212.554688 183.390625 212.066406 182.410156 211.601562 C 181.429688 211.136719 180.4375 210.695312 179.433594 210.28125 C 178.429688 209.863281 177.417969 209.472656 176.394531 209.105469 C 175.375 208.738281 174.34375 208.398438 173.304688 208.082031 C 172.265625 207.765625 171.21875 207.476562 170.164062 207.214844 C 169.113281 206.949219 168.054688 206.710938 166.988281 206.5 C 165.925781 206.285156 164.855469 206.101562 163.78125 205.941406 C 162.707031 205.78125 161.628906 205.648438 160.550781 205.542969 C 159.46875 205.4375 158.386719 205.355469 157.300781 205.300781 C 156.21875 205.25 155.132812 205.222656 154.046875 205.222656 Z M 154.046875 205.222656 "/>
<path style=" stroke:none;fill-rule:nonzero;fill:rgb(66.668701%,66.668701%,66.668701%);fill-opacity:1;" d="M 160.441406 205.523438 C 161.988281 206.226562 163.507812 206.980469 165.003906 207.789062 C 166.496094 208.597656 167.960938 209.460938 169.390625 210.375 C 170.824219 211.289062 172.222656 212.253906 173.585938 213.269531 C 174.945312 214.285156 176.273438 215.347656 177.558594 216.457031 C 178.847656 217.566406 180.09375 218.722656 181.296875 219.921875 C 182.503906 221.121094 183.664062 222.359375 184.777344 223.644531 C 185.894531 224.925781 186.960938 226.246094 187.984375 227.605469 C 189.003906 228.964844 189.976562 230.359375 190.898438 231.789062 C 191.820312 233.214844 192.691406 234.675781 193.507812 236.167969 C 194.324219 237.660156 195.089844 239.175781 195.796875 240.722656 C 196.507812 242.269531 197.160156 243.839844 197.757812 245.429688 C 198.351562 247.023438 198.890625 248.636719 199.375 250.265625 C 199.855469 251.898438 200.277344 253.542969 200.640625 255.207031 C 201.003906 256.867188 201.308594 258.539062 201.550781 260.222656 C 201.796875 261.90625 201.980469 263.597656 202.105469 265.292969 C 202.226562 266.992188 202.289062 268.6875 202.292969 270.390625 L 202.292969 283.316406 C 202.292969 283.738281 202.25 284.160156 202.167969 284.578125 C 202.085938 284.992188 201.960938 285.394531 201.800781 285.789062 C 201.636719 286.179688 201.4375 286.554688 201.203125 286.90625 C 200.96875 287.257812 200.699219 287.585938 200.402344 287.886719 C 200.101562 288.183594 199.777344 288.453125 199.421875 288.6875 C 199.070312 288.925781 198.699219 289.125 198.308594 289.285156 C 197.917969 289.449219 197.511719 289.570312 197.097656 289.652344 C 196.683594 289.738281 196.261719 289.777344 195.839844 289.777344 L 214.351562 289.777344 C 214.75 289.777344 215.140625 289.738281 215.527344 289.660156 C 215.917969 289.585938 216.292969 289.46875 216.660156 289.316406 C 217.027344 289.167969 217.375 288.980469 217.703125 288.761719 C 218.03125 288.539062 218.335938 288.289062 218.617188 288.007812 C 218.898438 287.726562 219.148438 287.421875 219.367188 287.09375 C 219.585938 286.765625 219.773438 286.414062 219.921875 286.050781 C 220.074219 285.683594 220.191406 285.304688 220.265625 284.917969 C 220.34375 284.527344 220.382812 284.136719 220.382812 283.738281 L 220.382812 271.660156 C 220.382812 269.617188 220.289062 267.578125 220.101562 265.546875 C 219.914062 263.511719 219.632812 261.492188 219.261719 259.484375 C 218.886719 257.476562 218.421875 255.488281 217.867188 253.523438 C 217.308594 251.5625 216.664062 249.625 215.929688 247.722656 C 215.195312 245.816406 214.375 243.949219 213.46875 242.121094 C 212.5625 240.289062 211.574219 238.507812 210.503906 236.769531 C 209.433594 235.03125 208.285156 233.34375 207.058594 231.714844 C 205.832031 230.082031 204.535156 228.507812 203.164062 226.996094 C 201.792969 225.484375 200.355469 224.039062 198.851562 222.660156 C 197.347656 221.28125 195.785156 219.972656 194.160156 218.738281 C 192.539062 217.503906 190.859375 216.347656 189.128906 215.265625 C 187.398438 214.1875 185.621094 213.1875 183.800781 212.273438 C 181.976562 211.355469 180.117188 210.527344 178.21875 209.78125 C 176.320312 209.039062 174.390625 208.382812 172.433594 207.816406 C 170.472656 207.25 168.492188 206.777344 166.488281 206.394531 C 164.484375 206.011719 162.46875 205.722656 160.441406 205.523438 Z M 160.441406 205.523438 "/>
<path style=" stroke:none;fill-rule:nonzero;fill:rgb(54.119873%,54.119873%,54.119873%);fill-opacity:1;" d="M 75.652344 277.699219 L 232.445312 277.699219 L 232.445312 289.777344 L 75.652344 289.777344 Z M 75.652344 277.699219 "/>
</g>
</svg>
