<svg xmlns="http://www.w3.org/2000/svg" data-name="Layer 1" viewBox="0 0 92.24 122.0875" x="0px" y="0px"><title>132 Rio Jesus</title><polygon points="30.84 79.76 23.76 97.67 69.84 97.67 62.76 79.76 30.84 79.76"/><path d="M62.22,18.89h-24V51.59c3.11,1.54,15.05,7.52,24,13.1Z" transform="translate(-3.52 -1)"/><path d="M59.39,78V66.14c-6-3.63-13-7.32-17.68-9.74V78Z" transform="translate(-3.52 -1)"/><path d="M94.4,18.89H64.94V33.81c14.29-2,23.79-7.77,23.79-12.12l2.11,0,3.56-.06a1.36,1.36,0,1,0,0-2.72Z" transform="translate(-3.52 -1)"/><path d="M54.85,7c0-3.31-2.34-6-5.21-6s-5.21,2.69-5.21,6v9.17H54.85Z" transform="translate(-3.52 -1)"/><path d="M35.48,18.89H4.88a1.36,1.36,0,1,0,0,2.72h7.79c0,4.3,9.11,10,22.81,12.08Z" transform="translate(-3.52 -1)"/><text x="0" y="112.67" fill="#000000" font-size="5px" font-weight="bold" font-family="'Helvetica Neue', Helvetica, Arial-Unicode, Arial, Sans-serif">Created by JohnnyZi</text><text x="0" y="117.67" fill="#000000" font-size="5px" font-weight="bold" font-family="'Helvetica Neue', Helvetica, Arial-Unicode, Arial, Sans-serif">from the Noun Project</text></svg>