<svg xmlns="http://www.w3.org/2000/svg" xmlns:xlink="http://www.w3.org/1999/xlink" version="1.1" x="0px" y="0px" viewBox="0 0 100 125" style="enable-background:new 0 0 100 100;" xml:space="preserve"><path d="M50,10c-22.0561523,0-40,17.9443359-40,40s17.9438477,40,40,40c10.7670288,0,20.5466309-4.2839355,27.7446289-11.2271729  c0.0799561-0.0582275,0.1495972-0.1212158,0.2076416-0.197998C85.3788452,71.3084717,90,61.1859131,90,50  C90,27.9443359,72.0561523,10,50,10z M64.296875,85.1987305v-6.9291992c0-0.5527344-0.4477539-1-1-1s-1,0.4472656-1,1v7.677002  C58.4370117,87.270752,54.3032227,88,50,88s-8.4370117-0.729248-12.296875-2.0534668v-7.677002c0-0.5527344-0.4477539-1-1-1  s-1,0.4472656-1,1v6.9291992c-4.34198-1.7701416-8.2833862-4.3198242-11.6533203-7.4763184  C28.6776123,67.5629883,38.8130493,61.0136719,50,61.0136719c11.2197266,0,21.3169556,6.5424805,25.9456787,16.7131348  C72.5767212,80.8813477,68.6369019,83.4294434,64.296875,85.1987305z M77.4519653,76.2338867  C72.3666382,65.7310791,61.7599487,59.0136719,50,59.0136719c-11.7260742,0-22.3652344,6.7290039-27.4505615,17.2216797  C16.0222168,69.4088135,12,60.1680908,12,50c0-20.953125,17.046875-38,38-38s38,17.046875,38,38  C88,60.1673584,83.9783325,69.4074707,77.4519653,76.2338867z"/><path d="M50,20.7255859c-9.3359375,0-16.9311523,7.5957031-16.9311523,16.9316406S40.6640625,54.5888672,50,54.5888672  s16.9311523-7.5957031,16.9311523-16.9316406S59.3359375,20.7255859,50,20.7255859z M50,52.5888672  c-8.2329102,0-14.9311523-6.6982422-14.9311523-14.9316406S41.7670898,22.7255859,50,22.7255859  s14.9311523,6.6982422,14.9311523,14.9316406S58.2329102,52.5888672,50,52.5888672z"/><text x="0" y="115" fill="#000000" font-size="5px" font-weight="bold" font-family="'Helvetica Neue', Helvetica, Arial-Unicode, Arial, Sans-serif">Created by Made x Made</text><text x="0" y="120" fill="#000000" font-size="5px" font-weight="bold" font-family="'Helvetica Neue', Helvetica, Arial-Unicode, Arial, Sans-serif">from the Noun Project</text></svg>