<svg xmlns="http://www.w3.org/2000/svg" xmlns:xlink="http://www.w3.org/1999/xlink" version="1.1" x="0px" y="0px" viewBox="0 0 100 125" style="enable-background:new 0 0 100 100;" xml:space="preserve"><path d="M50,5c-17,0-30.9,13.8-31,30.9V64c0,17.1,13.9,31,31,31s31-13.9,31-31V36C81,18.9,67.1,5,50,5z M28.5,80.4  C25.1,75.8,23,70.1,23,64V46.9c3.5,6.4,10.1,14.4,22.2,19.9c0.2,0.1,0.3,0.1,0.4,0.2C36.1,72.4,30.8,77.8,28.5,80.4z M44.3,28.7  c1.5,1.5,3.5,2.3,5.7,2.3s4.2-0.8,5.7-2.3c1.5-1.5,2.3-3.5,2.3-5.7c0-0.5,0-1.1-0.2-1.6c2.8,1.9,4.8,4.7,5.7,8.1  c0.2,0.9,1,1.5,1.9,1.5H67c1.1,0,2,0.9,2,2c0,1.1-0.9,2-2,2h-1.5c-0.9,0-1.7,0.6-1.9,1.5C62,42.7,56.4,47,50,47s-11.9-4.3-13.5-10.5  c-0.2-0.9-1-1.5-1.9-1.5H33c-1.1,0-2-0.9-2-2c0-1.1,0.9-2,2-2h1.5c0.9,0,1.7-0.6,1.9-1.5C38.1,23.3,43.6,19,50,19  c1.1,0,2.1,0.4,2.8,1.2c0.8,0.8,1.2,1.8,1.2,2.8s-0.4,2.1-1.2,2.8c-1.5,1.5-4.2,1.5-5.7,0c-0.8-0.8-2-0.8-2.8,0  C43.6,26.6,43.6,27.9,44.3,28.7z M41.8,49c2.5,1.3,5.3,2,8.2,2s5.7-0.7,8.2-2c3.5,0.1,6.6,2.2,8,5.4c-3.3,3.2-7.5,6.3-13.1,8.8  c-1.1,0.5-2.1,1-3.2,1.5c-1-0.5-2.1-1-3.2-1.5c-5.5-2.5-9.8-5.6-13.1-8.8C35.2,51.2,38.3,49.1,41.8,49z M77,64c0,14.9-12.1,27-27,27  c-7.3,0-13.9-2.9-18.8-7.6c2-2.4,9.2-10,23.6-16.6c12-5.5,18.6-13.5,22.2-19.9V64z M69.1,51.3c-1.5-2.5-3.8-4.4-6.5-5.4  C64.5,44,66,41.6,67,39h0c3.3,0,6-2.7,6-6s-2.7-6-6-6h0c-2.5-7.1-9.3-12-17-12s-14.4,4.9-17,12h0c-3.3,0-6,2.7-6,6s2.7,6,6,6h0  c0.9,2.6,2.5,5,4.4,6.9c-2.7,1-5,2.9-6.5,5.4C24.8,44,23.2,36.9,23,35.8C23.1,21,35.2,9,50,9c14.8,0,26.9,12,27,26.8  C76.8,36.9,75.2,44,69.1,51.3z"/><text x="0" y="115" fill="#000000" font-size="5px" font-weight="bold" font-family="'Helvetica Neue', Helvetica, Arial-Unicode, Arial, Sans-serif">Created by IconMark</text><text x="0" y="120" fill="#000000" font-size="5px" font-weight="bold" font-family="'Helvetica Neue', Helvetica, Arial-Unicode, Arial, Sans-serif">from the Noun Project</text></svg>