<svg xmlns="http://www.w3.org/2000/svg" xmlns:xlink="http://www.w3.org/1999/xlink" version="1.1" x="0px" y="0px" viewBox="0 0 128 160" style="enable-background:new 0 0 128 128;" xml:space="preserve"><g><path d="M118,47.8c1,0,1.8-0.8,1.8-1.8c0-0.1,0-0.2,0-0.4c-0.2-0.8-0.9-1.4-1.8-1.4c-0.9,0-1.6,0.6-1.8,1.4c0,0.1,0,0.2,0,0.4   C116.2,47,117,47.8,118,47.8z"/><path d="M125.2,47.8c1,0,1.8-0.8,1.8-1.8c0-0.1,0-0.2,0-0.4c-0.2-0.8-0.9-1.4-1.8-1.4c-0.9,0-1.6,0.6-1.8,1.4c0,0.1,0,0.2,0,0.4   C123.4,47,124.2,47.8,125.2,47.8z"/><circle cx="125.2" cy="38.8" r="1.8"/><circle cx="118" cy="38.8" r="1.8"/><circle cx="114.4" cy="42.4" r="1.8"/><circle cx="121.6" cy="42.4" r="1.8"/><circle cx="114.4" cy="35.2" r="1.8"/><circle cx="121.6" cy="35.2" r="1.8"/><circle cx="118" cy="53.2" r="1.8"/><circle cx="114.4" cy="56.8" r="1.8"/><circle cx="114.4" cy="49.6" r="1.8"/><circle cx="121.6" cy="49.6" r="1.8"/><path d="M105.4,31.2c-0.2-0.8-0.9-1.4-1.8-1.4c-0.9,0-1.6,0.6-1.8,1.4c0,0.1,0,0.2,0,0.4c0,1,0.8,1.8,1.8,1.8   c0.7,0,1.4-0.5,1.7-1.1c0.1-0.2,0.1-0.5,0.1-0.7C105.4,31.5,105.4,31.4,105.4,31.2z"/><circle cx="100" cy="28" r="1.8"/><circle cx="103.6" cy="38.8" r="1.8"/><circle cx="100" cy="42.4" r="1.8"/><circle cx="107.2" cy="42.4" r="1.8"/><circle cx="100" cy="35.2" r="1.8"/><circle cx="107.2" cy="35.2" r="1.8"/><path d="M103.6,62.2c0.7,0,1.4-0.5,1.7-1.1c0.1-0.2,0.1-0.5,0.1-0.7c0-0.1,0-0.2,0-0.4c-0.2-0.8-0.9-1.4-1.8-1.4   c-0.9,0-1.6,0.6-1.8,1.4c0,0.1,0,0.2,0,0.4C101.8,61.4,102.6,62.2,103.6,62.2z"/><path d="M98.2,60c-0.2-0.8-0.9-1.4-1.8-1.4s-1.6,0.6-1.8,1.4c0,0.1,0,0.2,0,0.4c0,1,0.8,1.8,1.8,1.8s1.8-0.8,1.8-1.8   C98.2,60.3,98.2,60.2,98.2,60z"/><circle cx="103.6" cy="53.2" r="1.8"/><circle cx="100" cy="56.8" r="1.8"/><circle cx="107.2" cy="56.8" r="1.8"/><circle cx="100" cy="49.6" r="1.8"/><circle cx="107.2" cy="49.6" r="1.8"/><circle cx="103.6" cy="67.6" r="1.8"/><circle cx="100" cy="71.2" r="1.8"/><circle cx="107.2" cy="71.2" r="1.8"/><circle cx="100" cy="64" r="1.8"/><circle cx="107.2" cy="64" r="1.8"/><path d="M119.8,60c-0.2-0.8-0.9-1.4-1.8-1.4c-0.9,0-1.6,0.6-1.8,1.4c0,0.1,0,0.2,0,0.4c0,1,0.8,1.8,1.8,1.8c0.7,0,1.4-0.5,1.7-1.1   c0.1-0.2,0.1-0.5,0.1-0.7C119.8,60.3,119.8,60.2,119.8,60z"/><circle cx="114.4" cy="64" r="1.8"/><circle cx="121.6" cy="64" r="1.8"/><circle cx="96.4" cy="89.2" r="1.8"/><circle cx="110.8" cy="38.8" r="1.8"/><path d="M110.8,62.2c0.7,0,1.4-0.5,1.7-1.1c0.1-0.2,0.1-0.5,0.1-0.7c0-0.1,0-0.2,0-0.4c-0.2-0.8-0.9-1.4-1.8-1.4   c-0.9,0-1.6,0.6-1.8,1.4c0,0.1,0,0.2,0,0.4C109,61.4,109.8,62.2,110.8,62.2z"/><circle cx="110.8" cy="53.2" r="1.8"/><circle cx="121.6" cy="56.8" r="1.8"/><path d="M125.2,58.6c-0.9,0-1.6,0.6-1.8,1.4c0,0.1,0,0.2,0,0.4c0,1,0.8,1.8,1.8,1.8c0.7,0,1.4-0.5,1.7-1.1c0.1-0.2,0.1-0.5,0.1-0.7   c0-0.1,0-0.2,0-0.4C126.8,59.2,126.1,58.6,125.2,58.6z"/><circle cx="125.2" cy="53.2" r="1.8"/><circle cx="110.8" cy="67.6" r="1.8"/><path d="M96.4,29.8c-0.9,0-1.6,0.6-1.8,1.4c0,0.1,0,0.2,0,0.4c0,1,0.8,1.8,1.8,1.8s1.8-0.8,1.8-1.8c0-0.1,0-0.2,0-0.4   C98,30.4,97.3,29.8,96.4,29.8z"/><path d="M89.2,29.8c-0.9,0-1.6,0.6-1.8,1.4c0,0.1,0,0.2,0,0.4c0,1,0.8,1.8,1.8,1.8c1,0,1.8-0.8,1.8-1.8c0-0.1,0-0.2,0-0.4   C90.8,30.4,90.1,29.8,89.2,29.8z"/><circle cx="96.4" cy="24.4" r="1.8"/><circle cx="89.2" cy="24.4" r="1.8"/><circle cx="85.6" cy="28" r="1.8"/><circle cx="92.8" cy="28" r="1.8"/><circle cx="96.4" cy="38.8" r="1.8"/><circle cx="89.2" cy="38.8" r="1.8"/><circle cx="85.6" cy="42.4" r="1.8"/><circle cx="92.8" cy="42.4" r="1.8"/><circle cx="85.6" cy="35.2" r="1.8"/><circle cx="92.8" cy="35.2" r="1.8"/><path d="M89.2,62.2c1,0,1.8-0.8,1.8-1.8c0-0.1,0-0.2,0-0.4c-0.2-0.8-0.9-1.4-1.8-1.4c-0.9,0-1.6,0.6-1.8,1.4c0,0.1,0,0.2,0,0.4   C87.4,61.4,88.2,62.2,89.2,62.2z"/><circle cx="96.4" cy="53.2" r="1.8"/><circle cx="89.2" cy="53.2" r="1.8"/><circle cx="85.6" cy="56.8" r="1.8"/><circle cx="92.8" cy="56.8" r="1.8"/><circle cx="85.6" cy="49.6" r="1.8"/><circle cx="92.8" cy="49.6" r="1.8"/><circle cx="96.4" cy="67.6" r="1.8"/><circle cx="89.2" cy="67.6" r="1.8"/><circle cx="85.6" cy="71.2" r="1.8"/><circle cx="92.8" cy="71.2" r="1.8"/><circle cx="85.6" cy="64" r="1.8"/><circle cx="92.8" cy="64" r="1.8"/><circle cx="89.2" cy="89.2" r="1.8"/><circle cx="89.2" cy="82" r="1.8"/><circle cx="85.6" cy="85.6" r="1.8"/><circle cx="92.8" cy="85.6" r="1.8"/><circle cx="85.6" cy="78.4" r="1.8"/><circle cx="92.8" cy="78.4" r="1.8"/><circle cx="85.6" cy="92.8" r="1.8"/><circle cx="92.8" cy="92.8" r="1.8"/><path d="M74.8,62.2c0.7,0,1.4-0.5,1.7-1.1c0.1-0.2,0.1-0.5,0.1-0.7c0-0.1,0-0.2,0-0.4c-0.2-0.8-0.9-1.4-1.8-1.4   c-0.9,0-1.6,0.6-1.8,1.4c0,0.1,0,0.2,0,0.4C73,61.4,73.8,62.2,74.8,62.2z"/><circle cx="71.2" cy="56.8" r="1.8"/><circle cx="78.4" cy="56.8" r="1.8"/><circle cx="74.8" cy="67.6" r="1.8"/><circle cx="67.6" cy="67.6" r="1.8"/><circle cx="71.2" cy="71.2" r="1.8"/><circle cx="78.4" cy="71.2" r="1.8"/><circle cx="71.2" cy="64" r="1.8"/><circle cx="78.4" cy="64" r="1.8"/><path d="M74.8,87.4c-1,0-1.8,0.8-1.8,1.8c0,1,0.8,1.8,1.8,1.8c0.7,0,1.4-0.5,1.7-1.1c0.1-0.2,0.1-0.5,0.1-0.7   C76.6,88.2,75.8,87.4,74.8,87.4z"/><circle cx="67.6" cy="89.2" r="1.8"/><circle cx="74.8" cy="82" r="1.8"/><circle cx="67.6" cy="82" r="1.8"/><circle cx="71.2" cy="85.6" r="1.8"/><circle cx="78.4" cy="85.6" r="1.8"/><circle cx="71.2" cy="78.4" r="1.8"/><circle cx="78.4" cy="78.4" r="1.8"/><circle cx="71.2" cy="92.8" r="1.8"/><circle cx="78.4" cy="92.8" r="1.8"/><path d="M67.6,62.2c1,0,1.8-0.8,1.8-1.8c0-0.1,0-0.2,0-0.4c-0.2-0.8-0.9-1.4-1.8-1.4S66,59.2,65.8,60c0,0.1,0,0.2,0,0.4   C65.8,61.4,66.6,62.2,67.6,62.2z"/><path d="M60.4,62.2c1,0,1.8-0.8,1.8-1.8c0-0.1,0-0.2,0-0.4c-0.2-0.8-0.9-1.4-1.8-1.4c-0.9,0-1.6,0.6-1.8,1.4c0,0.1,0,0.2,0,0.4   C58.6,61.4,59.4,62.2,60.4,62.2z"/><circle cx="60.4" cy="67.6" r="1.8"/><circle cx="56.8" cy="71.2" r="1.8"/><circle cx="64" cy="71.2" r="1.8"/><circle cx="56.8" cy="64" r="1.8"/><circle cx="64" cy="64" r="1.8"/><circle cx="60.4" cy="89.2" r="1.8"/><circle cx="60.4" cy="82" r="1.8"/><circle cx="64" cy="85.6" r="1.8"/><circle cx="56.8" cy="78.4" r="1.8"/><circle cx="64" cy="78.4" r="1.8"/><circle cx="64" cy="92.8" r="1.8"/><circle cx="49.6" cy="85.6" r="1.8"/><circle cx="49.6" cy="78.4" r="1.8"/><circle cx="49.6" cy="92.8" r="1.8"/><circle cx="46" cy="67.6" r="1.8"/><circle cx="49.6" cy="71.2" r="1.8"/><circle cx="42.4" cy="85.6" r="1.8"/><circle cx="42.4" cy="78.4" r="1.8"/><circle cx="42.4" cy="92.8" r="1.8"/><circle cx="42.4" cy="71.2" r="1.8"/><circle cx="42.4" cy="64" r="1.8"/><circle cx="35.2" cy="85.6" r="1.8"/><circle cx="35.2" cy="78.4" r="1.8"/><circle cx="35.2" cy="92.8" r="1.8"/><circle cx="35.2" cy="71.2" r="1.8"/><circle cx="35.2" cy="64" r="1.8"/><circle cx="28" cy="85.6" r="1.8"/><circle cx="28" cy="78.4" r="1.8"/><circle cx="28" cy="92.8" r="1.8"/><circle cx="28" cy="71.2" r="1.8"/><circle cx="49.6" cy="64" r="1.8"/><circle cx="20.8" cy="85.6" r="1.8"/><circle cx="20.8" cy="78.4" r="1.8"/><circle cx="20.8" cy="100" r="1.8"/><circle cx="20.8" cy="92.8" r="1.8"/><circle cx="20.8" cy="71.2" r="1.8"/><circle cx="13.6" cy="78.4" r="1.8"/><circle cx="13.6" cy="92.8" r="1.8"/><circle cx="13.6" cy="71.2" r="1.8"/><circle cx="6.4" cy="78.4" r="1.8"/><circle cx="6.4" cy="100" r="1.8"/><circle cx="6.4" cy="92.8" r="1.8"/><circle cx="6.4" cy="107.2" r="1.8"/><circle cx="6.4" cy="71.2" r="1.8"/><circle cx="96.4" cy="74.8" r="1.8"/><circle cx="89.2" cy="74.8" r="1.8"/><circle cx="82" cy="74.8" r="1.8"/><circle cx="82" cy="89.2" r="1.8"/><circle cx="82" cy="82" r="1.8"/><circle cx="82" cy="67.6" r="1.8"/><circle cx="82" cy="60.4" r="1.8"/><circle cx="82" cy="53.2" r="1.8"/><circle cx="82" cy="46" r="1.8"/><circle cx="103.6" cy="24.4" r="1.8"/><path d="M53.2,62.2c1,0,1.8-0.8,1.8-1.8c0-0.1,0-0.2,0-0.4c-0.2-0.8-0.9-1.4-1.8-1.4c-0.9,0-1.6,0.6-1.8,1.4c0,0.1,0,0.2,0,0.4   C51.4,61.4,52.2,62.2,53.2,62.2z"/><circle cx="53.2" cy="67.6" r="1.8"/><circle cx="53.2" cy="82" r="1.8"/><circle cx="53.2" cy="74.8" r="1.8"/><circle cx="74.8" cy="74.8" r="1.8"/><circle cx="67.6" cy="74.8" r="1.8"/><circle cx="60.4" cy="74.8" r="1.8"/><circle cx="53.2" cy="96.4" r="1.8"/><circle cx="46" cy="82" r="1.8"/><circle cx="46" cy="74.8" r="1.8"/><circle cx="46" cy="89.2" r="1.8"/><circle cx="46" cy="96.4" r="1.8"/><circle cx="38.8" cy="67.6" r="1.8"/><circle cx="38.8" cy="82" r="1.8"/><circle cx="38.8" cy="74.8" r="1.8"/><circle cx="38.8" cy="89.2" r="1.8"/><circle cx="38.8" cy="96.4" r="1.8"/><circle cx="31.6" cy="67.6" r="1.8"/><circle cx="31.6" cy="82" r="1.8"/><circle cx="31.6" cy="74.8" r="1.8"/><circle cx="31.6" cy="89.2" r="1.8"/><circle cx="31.6" cy="96.4" r="1.8"/><circle cx="24.4" cy="67.6" r="1.8"/><circle cx="24.4" cy="82" r="1.8"/><circle cx="24.4" cy="74.8" r="1.8"/><circle cx="24.4" cy="89.2" r="1.8"/><circle cx="24.4" cy="96.4" r="1.8"/><circle cx="17.2" cy="74.8" r="1.8"/><circle cx="17.2" cy="89.2" r="1.8"/><circle cx="17.2" cy="96.4" r="1.8"/><circle cx="10" cy="82" r="1.8"/><circle cx="10" cy="74.8" r="1.8"/><circle cx="10" cy="89.2" r="1.8"/><circle cx="10" cy="96.4" r="1.8"/><circle cx="10" cy="103.6" r="1.8"/><circle cx="2.8" cy="74.8" r="1.8"/><circle cx="2.8" cy="96.4" r="1.8"/><circle cx="2.8" cy="103.6" r="1.8"/><circle cx="103.6" cy="46" r="1.8"/><circle cx="96.4" cy="46" r="1.8"/><circle cx="89.2" cy="46" r="1.8"/><circle cx="110.8" cy="46" r="1.8"/><circle cx="100" cy="20.8" r="1.8"/><circle cx="92.8" cy="20.8" r="1.8"/></g><text x="0" y="143" fill="#000000" font-size="5px" font-weight="bold" font-family="'Helvetica Neue', Helvetica, Arial-Unicode, Arial, Sans-serif">Created by Rflor</text><text x="0" y="148" fill="#000000" font-size="5px" font-weight="bold" font-family="'Helvetica Neue', Helvetica, Arial-Unicode, Arial, Sans-serif">from the Noun Project</text></svg>